Coordinates
version=1
nRows=6
nColumns=36
inDegrees=yes

Units are S.I. units (second, meters, Newtons, ...)
If the header above contains a line with 'inDegrees', this indicates whether rotational values are in degrees (yes) or radians (no).

endheader
time	pelvis_tilt	pelvis_list	pelvis_rotation	pelvis_tx	pelvis_ty	pelvis_tz	hip_flexion_r	hip_adduction_r	hip_rotation_r	knee_angle_r	knee_angle_r_beta	ankle_angle_r	subtalar_angle_r	mtp_angle_r	hip_flexion_l	hip_adduction_l	hip_rotation_l	knee_angle_l	knee_angle_l_beta	ankle_angle_l	subtalar_angle_l	mtp_angle_l	lumbar_extension	lumbar_bending	lumbar_rotation	arm_flex_r	arm_add_r	arm_rot_r	elbow_flex_r	pro_sup_r	arm_flex_l	arm_add_l	arm_rot_l	elbow_flex_l	pro_sup_l
      1.76000000	    -16.95631097	      2.85474153	    -10.07411594	     -0.16997026	      0.71149570	     -0.59092840	     67.39955166	      4.75807733	      8.88576436	     92.27363354	      1.61047872	     33.28502045	    -15.65709645	     -7.49999930	     72.95338205	     -8.08401040	     -1.62147914	     93.39047823	      1.62997134	     20.71406177	    -25.52234722	     -7.49999930	    -19.82622805	     -2.20117868	      4.22333758	     97.51301303	     -3.87001602	     11.93359134	    112.76691469	    111.51142443	    109.82840578	     -8.30770106	     22.14302131	    108.24678642	    109.60055317
      1.77000000	    -17.03521800	      2.86519307	    -10.48982954	     -0.16597063	      0.72161368	     -0.59047620	     66.20660182	      5.04605999	      9.16479244	     90.41637918	      1.57806351	     32.09120007	    -15.91832672	     -7.49999931	     71.55600063	     -8.38851061	     -1.83264062	     91.67875486	      1.60009613	     20.09976927	    -25.09409692	     -7.49999931	    -18.95808182	     -2.36593312	      4.56291891	    102.71398172	     -4.61586467	     13.67314836	    110.74274871	    111.50294104	    115.38915760	     -7.87906492	     23.44521123	    105.79781457	    109.54015274
      1.78000000	    -17.07330363	      2.88615620	    -10.90933061	     -0.16160680	      0.73284374	     -0.59002874	     64.86803413	      5.32174840	      9.46281323	     88.33053693	      1.54165870	     30.20570766	    -17.01095589	     -7.49999933	     69.97016193	     -8.58925666	     -1.99245184	     89.77657358	      1.56689680	     19.33646316	    -24.79272730	     -7.49999933	    -18.09054857	     -2.51470977	      4.99480053	    107.74130223	     -5.37378114	     15.37953674	    108.39010455	    111.30156879	    120.58403255	     -7.48084966	     24.83122677	    103.00956075	    109.52458608
      1.79000000	    -17.29405955	      2.80558267	    -11.20742369	     -0.15686362	      0.74449021	     -0.58968545	     63.67552397	      5.49921184	      9.53331748	     86.24666247	      1.50528823	     28.82259763	    -16.81324479	     -7.49999933	     68.57809229	     -8.88544258	     -2.16817989	     87.78647692	      1.53216306	     18.36140426	    -24.14024868	     -7.49999933	    -16.83153551	     -2.39989805	      5.43351798	    112.45720194	     -5.96355553	     17.07994640	    105.08017307	    111.04588336	    125.03121763	     -7.01583125	     25.92708037	     99.73467078	    109.26639815
      1.80000000	    -17.31462934	      2.67819149	    -11.46052002	     -0.15161193	      0.75769688	     -0.58923215	     62.04075608	      5.70386724	      9.69493954	     83.81049538	      1.46276909	     26.93944642	    -17.32609145	     -7.49999934	     66.83450426	     -9.07913868	     -2.29256782	     85.55987334	      1.49330150	     17.10852383	    -23.79929808	     -7.49999934	    -15.75761647	     -2.30466671	      5.77115457	    116.91455977	     -6.61016805	     18.98080452	    101.69097494	    110.75762497	    129.26447520	     -6.80307764	     27.59852933	     96.40258074	    109.07825413
      1.81000000	    -17.44554490	      2.50825195	    -11.62931647	     -0.14625666	      0.77157298	     -0.58887711	     60.51427813	      5.89764529	      9.77979751	     81.21710832	      1.41750595	     23.44731969	    -19.43422911	     -7.49999937	     65.20819009	     -9.24610058	     -2.45328582	     83.13858367	      1.45104202	     14.85270152	    -24.28531482	     -7.49999937	    -14.43666265	     -2.14428525	      6.07392927	    120.91302148	     -7.20874550	     20.67667386	     97.84877997	    110.13655972	    133.08665742	     -6.55655151	     29.56287941	     92.74648394	    109.01627598
